HIERARCHY
ROOT Hips
{
	OFFSET 0.00000 0.00000 0.00000
	CHANNELS 6 Xposition Yposition Zposition Zrotation Yrotation Xrotation 
	JOINT LHipJoint
	{
		OFFSET 0 0 0
		CHANNELS 3 Zrotation Yrotation Xrotation
		JOINT LeftUpLeg
		{
			OFFSET 1.62964 -1.40469 0.78906
			CHANNELS 3 Zrotation Yrotation Xrotation
			JOINT LeftLeg
			{
				OFFSET 2.29640 -6.30932 0.00000
				CHANNELS 3 Zrotation Yrotation Xrotation
				JOINT LeftFoot
				{
					OFFSET 2.29451 -6.30412 0.00000
					CHANNELS 3 Zrotation Yrotation Xrotation
					JOINT LeftToeBase
					{
						OFFSET 0.03611 -0.09921 1.56387
						CHANNELS 3 Zrotation Yrotation Xrotation
						End Site
						{
							OFFSET 0.00000 -0.00000 0.80291
						}
					}
				}
			}
		}
	}
	JOINT RHipJoint
	{
		OFFSET 0 0 0
		CHANNELS 3 Zrotation Yrotation Xrotation
		JOINT RightUpLeg
		{
			OFFSET -1.73712 -1.40469 0.78906
			CHANNELS 3 Zrotation Yrotation Xrotation
			JOINT RightLeg
			{
				OFFSET -2.28137 -6.26801 0.00000
				CHANNELS 3 Zrotation Yrotation Xrotation
				JOINT RightFoot
				{
					OFFSET -2.28681 -6.28298 0.00000
					CHANNELS 3 Zrotation Yrotation Xrotation
					JOINT RightToeBase
					{
						OFFSET -0.15927 -0.43759 1.61103
						CHANNELS 3 Zrotation Yrotation Xrotation
						End Site
						{
							OFFSET -0.00000 -0.00000 0.84630
						}
					}
				}
			}
		}
	}
	JOINT LowerBack
	{
		OFFSET 0 0 0
		CHANNELS 3 Zrotation Yrotation Xrotation
		JOINT Spine
		{
			OFFSET -0.04227 2.04338 -0.00225
			CHANNELS 3 Zrotation Yrotation Xrotation
			JOINT Spine1
			{
				OFFSET -0.02148 2.04482 -0.04273
				CHANNELS 3 Zrotation Yrotation Xrotation
				JOINT Neck
				{
					OFFSET 0 0 0
					CHANNELS 3 Zrotation Yrotation Xrotation
					JOINT Neck1
					{
						OFFSET 0.09180 1.44629 0.19359
						CHANNELS 3 Zrotation Yrotation Xrotation
						JOINT Head
						{
							OFFSET 0.00887 1.40645 0.14750
							CHANNELS 3 Zrotation Yrotation Xrotation
							End Site
							{
								OFFSET -0.00669 1.50671 0.03707
							}
						}
					}
				}
				JOINT LeftShoulder
				{
					OFFSET 0 0 0
					CHANNELS 3 Zrotation Yrotation Xrotation
					JOINT LeftArm
					{
						OFFSET 2.17674 1.86763 -0.06520
						CHANNELS 3 Zrotation Yrotation Xrotation
						JOINT LeftForeArm
						{
							OFFSET 4.65776 -0.00000 0.00000
							CHANNELS 3 Zrotation Yrotation Xrotation
							JOINT LeftHand
							{
								OFFSET 3.55539 -0.00000 0.00000
								CHANNELS 3 Zrotation Yrotation Xrotation
								JOINT LeftFingerBase
								{
									OFFSET 0 0 0
									CHANNELS 3 Zrotation Yrotation Xrotation
									JOINT LeftHandIndex1
									{
										OFFSET 0.70726 -0.00000 0.00000
										CHANNELS 3 Zrotation Yrotation Xrotation
										End Site
										{
											OFFSET 0.57022 -0.00000 0.00000
										}
									}
								}
								JOINT LThumb
								{
									OFFSET 0 0 0
									CHANNELS 3 Zrotation Yrotation Xrotation
									End Site
									{
										OFFSET 0.57892 -0.00000 0.57892
									}
								}
							}
						}
					}
				}
				JOINT RightShoulder
				{
					OFFSET 0 0 0
					CHANNELS 3 Zrotation Yrotation Xrotation
					JOINT RightArm
					{
						OFFSET -2.80694 1.55459 -0.32496
						CHANNELS 3 Zrotation Yrotation Xrotation
						JOINT RightForeArm
						{
							OFFSET -4.71925 -0.00000 -0.00000
							CHANNELS 3 Zrotation Yrotation Xrotation
							JOINT RightHand
							{
								OFFSET -3.56990 -0.00000 0.00000
								CHANNELS 3 Zrotation Yrotation Xrotation
								JOINT RightFingerBase
								{
									OFFSET 0 0 0
									CHANNELS 3 Zrotation Yrotation Xrotation
									JOINT RightHandIndex1
									{
										OFFSET -0.50776 -0.00000 0.00000
										CHANNELS 3 Zrotation Yrotation Xrotation
										End Site
										{
											OFFSET -0.40937 -0.00000 0.00000
										}
									}
								}
								JOINT RThumb
								{
									OFFSET 0 0 0
									CHANNELS 3 Zrotation Yrotation Xrotation
									End Site
									{
										OFFSET -0.41562 -0.00000 0.41562
									}
								}
							}
						}
					}
				}
			}
		}
	}
}
MOTION
Frames: 11
Frame Time: .0083333
-1.3951 16.3265 21.0129 0 0 0 0 0 0 -21 0 0 0 0 0 0 0 0 0 0 0 0 0 0 21 0 0 0 0 0 0 0 0 0 0 0 0 0 0 0 0 0 0 0 0 0 0 -16 0 0 21 0 0 11 0 0 0 -8 0 0 0 0 0 0 0 0 0 0 0 0 0 0 0 0 0 0 0 0 8 0 0 0 0 0 0 0 0 0 0 0 0 0 0 0 0 0
-1.3951 16.3265 21.0129 177.2550 -0.0614 -151.4210 0.0000 0.0000 0.0000 -23.3072 -13.5260 -22.3112 0.1204 2.2371 6.1615 0.0916 -4.1958 -5.7279 2.5318 -9.8955 -28.6389 0.0000 0.0000 0.0000 14.5299 15.5935 -23.9067 -0.2722 -3.3559 9.2711 -1.1523 2.5837 -19.5969 -1.7283 8.2756 -23.5542 -9.8423 -3.0045 -33.5835 -0.2634 -1.1634 -1.8488 4.3695 -1.5743 15.2995 -1.3774 -5.0992 -2.3960 4.0982 -6.5579 16.9570 1.1764 -2.6261 5.6901 0.0000 0.0000 0.0000 -85.8526 -0.3527 12.1245 8.3845 -14.1742 -1.0443 -0.0000 -0.0000 14.7002 17.9845 -12.2650 -3.9449 -7.1250 0.0000 -0.0000 -6.4230 17.1557 4.2697 0.0000 0.0000 0.0000 91.6253 -6.3407 4.2262 -14.5177 23.4700 -3.0312 0.0000 0.0000 3.4609 -12.0763 -61.2646 10.6252 7.1250 -0.0000 -0.0000 -165.9560 -2.5005 13.8458
-1.3978 16.3094 21.0262 178.0090 -0.2713 -152.1660 0.0000 0.0000 0.0000 -22.4318 -13.4592 -21.4539 0.1189 2.2229 6.1221 0.0968 -3.9050 -5.7780 2.1178 -9.1073 -26.1316 0.0000 0.0000 0.0000 15.7076 15.5623 -22.9880 -0.2651 -3.3122 9.1491 -1.1499 2.5670 -19.5792 -1.8343 8.5121 -24.2806 -8.9553 -2.6711 -32.5823 -0.1752 -1.0979 -1.7684 4.0627 -1.4482 14.9792 -1.0129 -5.2694 -2.2699 3.7683 -6.7774 16.7466 1.0052 -2.7461 5.5855 0.0000 -0.0000 0.0000 -85.7203 -0.3503 12.5919 8.4438 -14.2697 -1.0588 -0.0000 -0.0000 14.0606 18.0945 -12.4186 -4.0194 -7.1250 0.0000 -0.0000 -6.3486 16.9870 4.2432 0.0000 -0.0000 0.0000 91.6696 -6.1409 2.2121 -13.8177 22.4734 -2.7580 0.0000 0.0000 5.0380 -8.4115 -52.4884 6.6900 7.1250 -0.0000 -0.0000 -14.6878 9.8762 -167.6244
-1.4000 16.2923 21.0384 178.6970 -0.6057 -152.9370 0.0000 0.0000 0.0000 -21.6750 -13.1948 -20.6610 0.1165 2.2002 6.0593 0.1096 -3.6345 -6.0329 2.4335 -9.7160 -28.0620 0.0000 0.0000 0.0000 16.8226 15.5396 -21.9675 -0.2547 -3.2472 8.9676 -1.1480 2.4403 -19.5883 -1.8117 8.4623 -24.1274 -8.1529 -2.4408 -31.5122 -0.0610 -1.1373 -1.7272 3.7796 -1.3761 14.5837 -0.9344 -5.3654 -2.3131 3.8477 -6.9151 16.9282 1.0073 -2.7904 5.6535 -0.0000 0.0000 0.0000 -85.6101 -0.2632 12.9789 8.4744 -14.3189 -1.0664 -0.0000 -0.0000 13.4659 18.1852 -12.5523 -4.0836 -7.1250 0.0000 -0.0000 -6.2877 16.8404 4.2222 -0.0000 0.0000 0.0000 91.7337 -6.2507 2.1021 -13.8186 22.4749 -2.7584 0.0000 0.0000 4.7069 -8.7680 -52.3901 6.9661 7.1250 -0.0000 -0.0000 -14.5371 9.8907 -167.7649
-1.4045 16.2564 21.0671 180.1120 -1.1981 -154.6710 0.0000 0.0000 0.0000 -20.1527 -12.6638 -18.8873 0.1102 2.1401 5.8931 0.1199 -3.3427 -6.2304 2.5931 -10.0052 -28.9937 0.0000 0.0000 0.0000 19.1520 15.2732 -19.8424 -0.2409 -3.1585 8.7205 -1.1506 2.3037 -19.6408 -1.8165 8.4730 -24.1603 -6.5119 -2.0061 -29.2050 0.2486 -1.2156 -1.5814 3.2737 -1.2382 13.7528 -1.1219 -5.4642 -2.3809 4.2022 -7.0743 17.1672 1.1362 -2.8379 5.7639 0.0000 0.0000 0.0000 -85.5524 -0.1328 13.6794 8.4893 -14.3428 -1.0701 -0.0000 -0.0000 12.3174 18.6401 -13.0888 -4.3683 -7.1250 0.0000 -0.0000 -5.9832 16.2425 4.0935 0.0000 0.0000 0.0000 91.7525 -6.3486 2.0128 -13.7681 22.4022 -2.7391 0.0000 0.0000 4.3423 -10.0062 -52.4630 7.9644 7.1250 -0.0000 -0.0000 -14.0279 9.5473 -168.1218
-1.4059 16.2534 21.0552 180.1780 -1.0967 -154.7990 0.0000 0.0000 0.0000 -20.1244 -12.6538 -18.6054 0.1049 2.0883 5.7499 0.1214 -3.2639 -6.2559 2.3835 -9.6229 -27.7641 0.0000 0.0000 0.0000 19.2736 15.1647 -19.6727 -0.2408 -3.1581 8.7193 -1.1499 2.4254 -19.6083 -1.8134 8.4661 -24.1389 -6.4386 -1.9608 -29.2487 0.2393 -1.1610 -1.4983 3.2449 -1.2088 13.8630 -0.9537 -5.2053 -2.1464 3.9682 -6.7054 16.7769 1.0657 -2.6867 5.5767 0.0000 0.0000 0.0000 -85.4606 -0.0987 14.2240 8.6037 -14.5267 -1.0986 -0.0000 -0.0000 11.6624 18.1905 -12.7974 -4.1630 -7.1250 0.0000 -0.0000 -6.2882 16.5851 4.2576 0.0000 0.0000 0.0000 91.8068 -6.3597 1.9039 -13.7587 22.3886 -2.7355 0.0000 0.0000 4.2203 -10.9643 -53.1111 8.8078 7.1250 -0.0000 -0.0000 -13.6755 8.7262 -168.2075
-1.4047 16.2505 21.0520 180.1790 -1.0879 -154.7630 0.0000 0.0000 0.0000 -20.1436 -12.5422 -18.6566 0.1040 2.0793 5.7250 0.1176 -3.3990 -6.1836 2.2469 -9.3624 -26.9356 0.0000 0.0000 0.0000 19.3014 15.1053 -19.7376 -0.2424 -3.1686 8.7486 -1.1432 2.5439 -19.5245 -1.7019 8.2155 -23.3705 -6.4753 -1.9403 -29.3102 0.1945 -1.1179 -1.5135 3.2309 -1.1927 13.8673 -1.2260 -5.1233 -1.8809 4.3522 -6.6190 16.5620 1.2424 -2.6434 5.4839 -0.0000 -0.0000 0.0000 -85.2801 -0.0785 14.6706 8.6961 -14.6748 -1.1219 -0.0000 -0.0000 10.9931 17.5568 -12.3914 -3.8841 -7.1250 0.0000 -0.0000 -6.7217 17.0588 4.4853 -0.0000 -0.0000 0.0000 91.9553 -6.4843 1.7099 -13.8083 22.4601 -2.7545 0.0000 0.0000 4.1901 -10.9555 -53.3990 8.8333 7.1250 -0.0000 -0.0000 -13.6990 8.4602 -168.1113
-1.4066 16.2511 21.0478 180.2330 -1.0180 -154.7940 0.0000 0.0000 0.0000 -20.1139 -12.5367 -18.5855 0.1025 2.0640 5.6827 0.1202 -3.3262 -6.2369 2.3199 -9.5029 -27.3815 0.0000 0.0000 0.0000 19.3465 15.1116 -19.7173 -0.2433 -3.1741 8.7639 -1.1408 2.6740 -19.4767 -1.6024 7.9834 -22.6638 -6.4446 -1.9265 -29.2893 0.2250 -1.1125 -1.5034 3.2503 -1.1883 13.8698 -0.9787 -5.1773 -1.4750 4.2782 -6.7022 16.0045 1.1871 -2.7039 5.2333 0.0000 0.0000 0.0000 -85.2847 -0.1178 14.6724 8.7007 -14.6822 -1.1231 -0.0000 -0.0000 11.0922 17.5863 -12.5102 -3.9276 -7.1250 0.0000 -0.0000 -6.7025 16.9333 4.4908 0.0000 0.0000 0.0000 91.9052 -6.5507 1.7084 -13.8543 22.5261 -2.7721 0.0000 0.0000 4.0848 -10.5442 -53.2004 8.4774 7.1250 -0.0000 -0.0000 -13.8510 8.7386 -168.0501
-1.4057 16.2512 21.0481 180.2510 -1.0470 -154.7100 0.0000 0.0000 0.0000 -20.0494 -12.5977 -18.7204 0.1053 2.0926 5.7616 0.1193 -3.3430 -6.2176 2.3244 -9.5114 -27.4085 0.0000 0.0000 0.0000 19.3297 15.2252 -19.7765 -0.2421 -3.1662 8.7417 -1.1427 2.5922 -19.5100 -1.5198 7.7847 -22.0621 -6.4847 -1.9582 -29.3165 0.2584 -1.1506 -1.5355 3.2925 -1.2099 13.8501 -0.9007 -5.2923 -1.3061 4.3121 -6.8643 15.8476 1.1816 -2.7839 5.1594 -0.0000 -0.0000 0.0000 -85.2824 -0.0698 14.8956 8.7196 -14.7125 -1.1279 -0.0000 -0.0000 11.1808 18.0104 -12.8605 -4.1390 -7.1250 0.0000 -0.0000 -6.4137 16.5348 4.3508 -0.0000 -0.0000 0.0000 91.9179 -6.7086 1.7941 -14.0127 22.7529 -2.8330 0.0000 0.0000 3.9974 -10.4387 -53.4314 8.4167 7.1250 -0.0000 -0.0000 -13.9084 8.5474 -167.9429
-1.4058 16.2504 21.0452 180.2220 -1.0695 -154.7140 0.0000 0.0000 0.0000 -20.0861 -12.6248 -18.7028 0.1062 2.1017 5.7869 0.1183 -3.3384 -6.1913 2.3317 -9.5252 -27.4525 0.0000 0.0000 0.0000 19.2963 15.2208 -19.7191 -0.2380 -3.1398 8.6681 -1.1405 2.5520 -19.4987 -1.4857 7.7009 -21.8091 -6.5358 -1.9936 -29.3333 0.2575 -1.1737 -1.5073 3.3099 -1.2236 13.8931 -0.9999 -5.2960 -1.6766 4.4298 -6.8717 16.4094 1.2217 -2.7530 5.4043 -0.0000 -0.0000 0.0000 -85.2573 -0.0654 15.1489 8.8223 -14.8767 -1.1541 -0.0000 -0.0000 10.7797 18.0125 -12.8386 -4.1326 -7.1250 0.0000 -0.0000 -6.4119 16.5573 4.3464 -0.0000 -0.0000 0.0000 91.9567 -6.7627 1.8646 -14.1094 22.8909 -2.8705 0.0000 0.0000 4.0240 -10.6107 -53.8109 8.5977 7.1250 -0.0000 -0.0000 -13.8643 8.1547 -167.8724
-1.4040 16.2491 21.0428 180.1910 -1.0216 -154.7010 0.0000 0.0000 0.0000 -20.1476 -12.5066 -18.7513 0.1075 2.1146 5.8224 0.1170 -3.4167 -6.1730 2.4268 -9.7037 -28.0223 0.0000 0.0000 0.0000 19.2717 15.2355 -19.7230 -0.2384 -3.1421 8.6746 -1.1359 2.5131 -19.4660 -1.5646 7.8932 -22.3901 -6.6186 -1.9900 -29.3524 0.2482 -1.1389 -1.5002 3.3577 -1.2134 13.9063 -0.8336 -5.2642 -1.3612 4.3598 -6.8376 15.8520 1.1854 -2.7629 5.1686 0.0000 -0.0000 0.0000 -85.2309 -0.0998 15.2020 8.9074 -15.0128 -1.1760 -0.0000 -0.0000 10.7084 17.8695 -12.7007 -4.0545 -7.1250 0.0000 -0.0000 -6.5087 16.7126 4.3908 0.0000 -0.0000 0.0000 91.9728 -6.7493 1.7573 -14.0934 22.8680 -2.8643 0.0000 0.0000 4.1257 -10.5401 -53.8533 8.5447 7.1250 -0.0000 -0.0000 -13.8953 8.1314 -167.8369
